<?xml version="1.0" standalone="no"?>
<!DOCTYPE svg PUBLIC "-//W3C//DTD SVG 20010904//EN"
 "http://www.w3.org/TR/2001/REC-SVG-20010904/DTD/svg10.dtd">
<svg version="1.0" xmlns="http://www.w3.org/2000/svg"
 width="260.000000pt" height="260.000000pt" viewBox="0 0 260.000000 260.000000"
 preserveAspectRatio="xMidYMid meet">
<metadata>
Created by potrace 1.14, written by Peter Selinger 2001-2017
</metadata>
<g transform="translate(0.000000,260.000000) scale(0.100000,-0.100000)"
fill="#000000" stroke="none">
<path d="M0 1300 l0 -1300 1300 0 1300 0 0 1300 0 1300 -1300 0 -1300 0 0
-1300z m1025 460 c-3 -5 -1 -10 5 -10 20 0 5 -35 -20 -47 -24 -12 -24 -13 7
-7 18 3 40 1 49 -4 15 -8 12 -11 -14 -17 -18 -3 -35 -11 -38 -17 -4 -7 -2 -8
4 -4 7 4 12 2 12 -3 0 -6 11 -11 24 -11 24 0 24 -1 10 -29 -16 -31 -40 -46
-49 -31 -10 16 -75 12 -81 -5 -10 -26 -45 1 -42 33 2 25 5 28 32 24 42 -6 21
17 -26 28 l-33 7 35 11 35 10 -30 2 c-16 1 -24 4 -17 7 6 2 12 15 12 27 0 14
9 27 21 32 30 13 112 16 104 4z m919 1 c3 -4 -6 -6 -19 -3 -14 2 -25 6 -25 8
0 8 39 4 44 -5z m-414 -11 c19 -6 44 -17 54 -25 17 -13 18 -19 7 -55 -11 -37
-15 -40 -46 -40 -33 0 -39 -5 -71 -58 -1 -1 -11 -5 -24 -7 -12 -2 -32 -11 -45
-19 -20 -13 -24 -13 -38 5 -9 10 -24 19 -32 19 -8 0 -15 6 -15 13 0 8 -4 7
-10 -3 -9 -13 -12 -12 -25 5 -18 23 -15 37 11 49 10 5 28 27 39 50 32 66 107
91 195 66z m475 -55 l30 -7 -25 -19 c-14 -10 -29 -17 -35 -15 -5 2 -22 -4 -37
-12 -26 -15 -29 -15 -49 7 -20 21 -28 23 -86 17 -66 -7 -81 3 -40 26 26 15
163 26 192 16 11 -4 33 -10 50 -13z m-290 -45 c4 -6 -1 -7 -11 -3 -15 5 -14 3
2 -22 l18 -28 7 24 6 24 11 -27 c14 -34 40 -48 88 -48 25 0 46 7 62 23 l24 22
-4 -30 c-2 -25 -7 -29 -27 -27 -16 3 -21 0 -16 -8 9 -15 -47 -4 -87 16 -15 8
-40 14 -57 14 -35 0 -70 38 -48 52 6 4 8 8 4 8 -11 0 2 20 13 20 5 0 12 -4 15
-10z m-1151 -27 c-7 -16 -14 -35 -15 -43 0 -8 -5 -2 -11 14 -9 25 -8 31 8 43
28 20 34 16 18 -14z m83 11 c-16 -8 -34 -13 -40 -10 -7 2 -4 5 6 5 10 1 15 6
12 11 -4 6 6 10 22 10 l28 -1 -28 -15z m31 -23 c23 -14 10 -46 -21 -49 -31 -4
-46 20 -27 43 14 17 29 19 48 6z m897 -20 c5 -13 4 -14 -6 -3 -19 18 -31 15
-24 -7 4 -14 0 -23 -15 -31 -11 -6 -20 -8 -21 -5 -4 20 -2 52 4 61 9 16 54 5
62 -15z m-775 -6 c7 -8 10 -22 6 -30 -7 -20 -55 -20 -62 0 -7 17 12 45 31 45
7 0 18 -7 25 -15z m185 -15 c-28 -12 -37 -12 -30 0 3 6 16 10 28 9 21 0 21 -1
2 -9z m980 -18 c-3 -3 -11 0 -18 7 -9 10 -8 11 6 5 10 -3 15 -9 12 -12z
m-1350 -48 c15 -15 33 -24 44 -21 10 2 26 -2 36 -9 18 -14 18 -14 -1 -15 -38
-2 -58 3 -93 26 -34 21 -71 59 -71 70 0 10 60 -26 85 -51z m376 33 c-5 -5 -17
-5 -28 2 -16 9 -15 10 9 9 16 -2 24 -6 19 -11z m446 -18 c-14 -8 -22 -8 -30 0
-8 8 -3 11 19 11 25 -1 27 -2 11 -11z m423 -14 c0 -8 -4 -15 -10 -15 -5 0 -7
7 -4 15 4 8 8 15 10 15 2 0 4 -7 4 -15z m-770 -34 c0 -10 -17 -25 -46 -39
l-45 -22 3 37 c3 35 6 38 38 44 42 6 50 3 50 -20z m722 4 c21 -10 40 -27 44
-37 7 -22 33 -23 49 -2 19 27 69 6 73 -31 4 -30 -25 -144 -64 -260 -34 -97
-39 -160 -21 -215 16 -44 15 -44 -2 -23 -25 29 -34 111 -26 225 5 69 3 105 -9
141 -21 69 -73 151 -109 172 -22 13 -27 20 -17 23 8 3 19 11 23 19 5 8 12 13
15 11 4 -2 24 -12 44 -23z m-404 -13 c7 -5 15 -21 18 -35 4 -26 2 -27 -36 -27
-33 0 -40 3 -40 19 0 46 25 64 58 43z m-873 -72 c17 -6 14 -9 -18 -15 -34 -7
-38 -10 -32 -29 15 -48 34 -143 35 -169 0 -27 -1 -28 -37 -21 -21 3 -42 10
-47 14 -5 5 -15 6 -23 3 -8 -3 1 15 21 42 37 47 40 70 14 103 -17 20 -22 15
-58 -57 -23 -44 -44 -72 -60 -78 l-25 -11 25 -2 c50 -3 193 -40 186 -47 -7 -7
-203 40 -221 53 -24 18 -13 57 35 130 32 49 46 61 87 75 53 19 88 22 118 9z
m267 -31 c15 -11 28 -22 28 -25 0 -14 -34 -53 -41 -48 -5 3 -12 -2 -15 -11 -5
-12 -9 -13 -14 -5 -9 15 -1 50 11 50 5 0 6 -6 3 -13 -3 -8 2 -14 11 -14 10 0
15 10 15 29 0 24 -7 32 -42 49 -34 16 -36 19 -14 14 17 -3 42 -15 58 -26z
m578 -5 c0 25 17 11 24 -20 6 -21 1 -33 -20 -55 -23 -24 -30 -26 -48 -17 -25
13 -55 49 -56 65 0 6 12 20 28 31 l27 21 23 -21 c19 -19 22 -20 22 -4z m-691
6 c16 8 22 6 31 -10 15 -28 40 -162 40 -212 0 -39 -1 -40 -18 -25 -10 10 -29
17 -43 17 -40 0 -46 11 -63 103 -9 48 -21 98 -26 111 -8 23 -8 24 25 15 23 -7
41 -6 54 1z m1406 -77 c8 -19 15 -37 15 -38 0 -2 -11 2 -25 8 -26 12 -42 47
-30 67 10 16 23 3 40 -37z m-1502 30 c-7 -2 -21 -2 -30 0 -10 3 -4 5 12 5 17
0 24 -2 18 -5z m437 3 c0 -2 -7 -9 -15 -16 -12 -10 -15 -10 -15 4 0 9 7 16 15
16 8 0 15 -2 15 -4z m-187 -88 c4 -51 1 -68 -8 -68 -17 0 -24 21 -14 45 4 11
8 40 9 65 2 59 7 42 13 -42z m-260 65 c-7 -2 -19 -2 -25 0 -7 3 -2 5 12 5 14
0 19 -2 13 -5z m-46 -35 c-3 -7 -5 -2 -5 12 0 14 2 19 5 13 2 -7 2 -19 0 -25z
m53 12 c0 -5 -9 -10 -20 -10 -11 0 -20 5 -20 10 0 6 9 10 20 10 11 0 20 -4 20
-10z m630 -22 c0 -9 3 -9 12 0 20 20 26 14 32 -35 6 -39 0 -67 -29 -152 -19
-58 -35 -117 -35 -132 0 -52 -13 -92 -31 -96 -14 -4 -17 -11 -13 -29 8 -32 -2
-30 -20 4 l-15 27 6 -32 c5 -32 -10 -48 -20 -20 -2 6 -3 5 -2 -3 2 -8 6 -24
11 -35 7 -18 6 -19 -12 -5 -10 8 -16 11 -12 6 4 -4 3 -19 -3 -33 -6 -16 -6
-22 1 -18 7 4 7 -2 1 -17 -12 -29 -25 -99 -22 -118 1 -8 9 -20 16 -26 8 -6 19
-33 25 -60 7 -27 15 -61 20 -76 8 -27 7 -28 -31 -28 -30 0 -39 4 -40 18 0 10
-3 12 -6 5 -2 -7 -20 -13 -38 -13 -32 0 -34 2 -46 53 -6 28 -23 85 -35 125
-13 40 -26 106 -30 147 -4 41 -10 72 -15 69 -4 -2 -5 -12 -2 -20 5 -14 3 -14
-26 0 -26 14 -31 22 -31 54 0 20 4 43 8 50 15 22 42 2 44 -32 l1 -31 4 34 c4
33 5 33 44 28 21 -3 42 -1 45 4 3 5 30 9 60 9 39 0 54 4 54 14 0 7 9 25 20 38
10 14 31 65 45 114 21 70 25 102 21 150 -3 34 -2 64 1 68 11 11 43 6 43 -6z
m-924 -102 c19 -20 18 -36 -4 -36 -25 0 -31 7 -25 31 6 23 10 23 29 5z m221
-59 c1 -1 6 -29 12 -62 6 -33 13 -77 17 -97 l7 -38 -51 0 c-28 0 -57 -3 -66
-6 -14 -5 -16 6 -16 89 0 125 2 131 54 123 22 -4 41 -8 43 -9z m253 -29 c0
-18 3 -63 6 -99 l7 -67 -50 -3 -50 -4 -11 68 c-15 87 -15 97 3 97 8 0 29 9 47
20 44 27 48 26 48 -12z m842 -128 c24 -14 35 -31 44 -67 17 -61 17 -60 -1 -60
-10 0 -13 6 -9 19 6 20 -3 22 -58 9 -21 -5 -38 -6 -39 -2 0 3 -2 25 -5 49 -10
75 8 89 68 52z m91 -47 c-19 -4 -21 -9 -16 -36 7 -40 -12 -26 -22 16 -7 26 -5
27 26 26 23 -1 27 -3 12 -6z m355 0 c-10 -2 -28 -2 -40 0 -13 2 -5 4 17 4 22
1 32 -1 23 -4z m-143 -24 c-4 -5 -1 -9 5 -9 6 0 9 -4 5 -9 -3 -5 -1 -12 4 -15
5 -4 8 -17 6 -31 -1 -14 2 -28 6 -31 5 -3 9 -11 9 -17 0 -7 -5 -4 -11 6 -6 9
-14 15 -18 13 -4 -3 -8 1 -8 9 0 8 4 12 9 9 4 -3 8 -1 8 5 0 5 -8 15 -17 20
-14 8 -15 10 -3 11 9 0 11 3 5 8 -12 9 -16 54 -4 46 5 -3 7 -10 4 -15z m58
-156 c-7 -2 -13 -9 -13 -14 0 -6 5 -7 12 -3 7 5 8 3 3 -5 -5 -9 -11 -9 -17 -3
-12 12 -2 32 15 31 9 0 9 -2 0 -6z m-116 -85 c-3 -8 -6 -5 -6 6 -1 11 2 17 5
13 3 -3 4 -12 1 -19z m30 0 c-3 -8 -6 -5 -6 6 -1 11 2 17 5 13 3 -3 4 -12 1
-19z m-174 -105 c-15 -5 -18 -33 -4 -33 5 0 12 6 14 13 4 9 6 9 6 0 1 -17 -19
-27 -31 -15 -13 13 -3 42 14 41 10 0 10 -2 1 -6z m145 -225 c2 -4 10 -8 18 -8
8 0 14 -4 14 -10 0 -5 -11 -10 -24 -10 -14 0 -37 -5 -52 -10 -15 -6 -30 -8
-33 -4 -3 4 0 9 7 11 6 3 12 16 12 29 0 22 3 24 28 18 15 -4 29 -11 30 -16z
m-148 -18 c3 -3 13 -9 23 -13 36 -14 15 -27 -43 -27 -33 0 -60 4 -60 10 0 6 5
10 10 10 6 0 10 9 10 20 0 17 4 19 28 14 15 -4 29 -10 32 -14z m-969 -51 c11
-5 17 -14 14 -20 -4 -5 -1 -8 7 -7 7 2 14 -8 16 -21 2 -13 12 -26 24 -29 15
-4 17 -7 6 -13 -17 -11 -100 -11 -130 0 -13 4 -39 11 -60 15 -33 6 -36 5 -31
-14 5 -19 1 -20 -81 -20 -99 0 -127 10 -119 40 16 60 113 81 160 34 24 -24 28
-25 38 -10 7 8 15 13 18 10 3 -4 21 5 39 20 35 27 67 33 99 15z m1181 -7 c7
-10 33 -32 58 -47 89 -57 90 -58 18 -71 -51 -10 -78 -9 -138 2 -91 17 -91 17
-85 2 6 -16 -151 -22 -161 -7 -3 6 -3 35 1 65 l6 54 65 0 64 0 7 -42 8 -43 5
45 c4 40 8 46 35 51 61 13 103 10 117 -9z m-626 -92 c17 -7 24 -14 18 -20 -13
-13 -99 -24 -121 -15 -15 5 -13 9 17 25 41 22 50 23 86 10z m237 -19 c6 -6 8
-13 5 -16 -10 -11 -77 -18 -102 -11 -27 7 -35 30 -13 40 19 9 97 0 110 -13z
m-57 -41 c59 0 74 -3 74 -15 0 -12 -15 -15 -75 -15 -62 0 -75 3 -75 16 0 11
-5 14 -17 9 -10 -4 -66 -9 -125 -12 -94 -5 -108 -4 -108 10 0 13 9 15 48 11
26 -3 81 1 122 9 61 10 76 11 78 0 3 -9 25 -13 78 -13z"/>
<path d="M950 1610 c-11 -8 -9 -9 13 -8 15 1 27 6 27 10 0 11 -22 10 -40 -2z"/>
<path d="M1415 1645 c28 -7 51 -12 53 -10 6 5 -61 25 -82 24 -12 0 2 -6 29
-14z"/>
<path d="M1381 1626 c2 -2 20 -6 39 -10 25 -4 31 -3 20 4 -14 9 -69 15 -59 6z"/>
<path d="M850 806 c0 -8 4 -17 9 -20 5 -4 7 3 4 14 -6 23 -13 26 -13 6z"/>
</g>
</svg>
